<svg xmlns="http://www.w3.org/2000/svg" width="191" height="250" viewBox="0 0 191 250" fill="none">
<path d="M184.313 250L0 243.682L10.8459 0L190.35 24.9976L184.313 250Z" fill="#625DF3"/>
<path d="M116.232 111.905C116.232 111.905 130.615 107.561 130.615 90.6169C130.615 62.7536 108.551 59.2401 83.2295 59.2401C57.9264 59.2401 40.2002 59.2401 40.2002 59.2401V207.221H81.7385L78.0357 188.67C78.0357 188.67 88.7838 207.221 114.02 207.221C135.809 207.221 160.367 191.261 160.367 156.041C160.367 120.802 125.128 111.905 116.232 111.905ZM74.3267 88.8021C74.3267 80.8953 80.7303 74.4916 88.6372 74.4916H90.0364C93.9837 74.4916 97.5644 76.0864 100.161 78.6772C102.74 81.2741 104.347 84.8365 104.347 88.8021C104.347 96.7089 97.9433 103.131 90.0364 103.131H88.6372C80.7303 103.131 74.3267 96.7089 74.3267 88.8021ZM111.417 177.329H109.51C98.6582 177.329 89.8653 168.451 89.8653 157.495C89.8653 146.557 98.6582 137.679 109.51 137.679H111.417C116.837 137.679 121.749 139.897 125.312 143.478C128.862 147.077 131.055 152.026 131.055 157.495C131.062 168.451 122.269 177.329 111.417 177.329Z" fill="white"/>
</svg>
